<svg id="visual" viewBox="0 0 900 600" width="900" height="600" xmlns="http://www.w3.org/2000/svg" xmlns:xlink="http://www.w3.org/1999/xlink" version="1.1"><path d="M0 67L82 67L82 103L164 103L164 103L245 103L245 97L327 97L327 109L409 109L409 61L491 61L491 79L573 79L573 61L655 61L655 49L736 49L736 49L818 49L818 103L900 103L900 49L900 0L900 0L818 0L818 0L736 0L736 0L655 0L655 0L573 0L573 0L491 0L491 0L409 0L409 0L327 0L327 0L245 0L245 0L164 0L164 0L82 0L82 0L0 0Z" fill="#fa7268"></path><path d="M0 259L82 259L82 271L164 271L164 241L245 241L245 235L327 235L327 265L409 265L409 193L491 193L491 307L573 307L573 199L655 199L655 307L736 307L736 157L818 157L818 247L900 247L900 283L900 47L900 101L818 101L818 47L736 47L736 47L655 47L655 59L573 59L573 77L491 77L491 59L409 59L409 107L327 107L327 95L245 95L245 101L164 101L164 101L82 101L82 65L0 65Z" fill="#ea5e66"></path><path d="M0 421L82 421L82 361L164 361L164 319L245 319L245 355L327 355L327 397L409 397L409 337L491 337L491 445L573 445L573 337L655 337L655 403L736 403L736 325L818 325L818 367L900 367L900 457L900 281L900 245L818 245L818 155L736 155L736 305L655 305L655 197L573 197L573 305L491 305L491 191L409 191L409 263L327 263L327 233L245 233L245 239L164 239L164 269L82 269L82 257L0 257Z" fill="#d84a64"></path><path d="M0 553L82 553L82 523L164 523L164 523L245 523L245 547L327 547L327 565L409 565L409 565L491 565L491 535L573 535L573 529L655 529L655 523L736 523L736 523L818 523L818 505L900 505L900 553L900 455L900 365L818 365L818 323L736 323L736 401L655 401L655 335L573 335L573 443L491 443L491 335L409 335L409 395L327 395L327 353L245 353L245 317L164 317L164 359L82 359L82 419L0 419Z" fill="#c53762"></path><path d="M0 601L82 601L82 601L164 601L164 601L245 601L245 601L327 601L327 601L409 601L409 601L491 601L491 601L573 601L573 601L655 601L655 601L736 601L736 601L818 601L818 601L900 601L900 601L900 551L900 503L818 503L818 521L736 521L736 521L655 521L655 527L573 527L573 533L491 533L491 563L409 563L409 563L327 563L327 545L245 545L245 521L164 521L164 521L82 521L82 551L0 551Z" fill="#b0235f"></path></svg>